<?xml version="1.0" standalone="no"?><!DOCTYPE svg PUBLIC "-//W3C//DTD SVG 1.1//EN" "http://www.w3.org/Graphics/SVG/1.1/DTD/svg11.dtd"><svg t="1675758847742" class="icon" viewBox="0 0 1024 1024" version="1.1" xmlns="http://www.w3.org/2000/svg" p-id="1002" xmlns:xlink="http://www.w3.org/1999/xlink" width="200" height="200"><path d="M518.84672 1023.872024v-97.389739a97.325751 97.325751 0 0 0-97.261763-97.197776 97.325751 97.325751 0 0 0-97.325752 97.197776v97.389739H180.670128A180.894082 180.894082 0 0 1 0.031998 843.105918V699.516841h97.261763a97.389739 97.389739 0 0 0 97.325752-97.325752A97.325751 97.325751 0 0 0 97.293761 504.993314H0.031998V361.340249a180.830094 180.830094 0 0 1 180.63813-180.638131h42.29607A203.353871 203.353871 0 0 1 423.696561 0a203.353871 203.353871 0 0 1 200.730363 180.702118h37.944885a180.894082 180.894082 0 0 1 180.766107 180.638131v40.184465a203.289883 203.289883 0 0 1 180.63813 200.730363 203.225895 203.225895 0 0 1-180.63813 200.730363v40.120478a180.95807 180.95807 0 0 1-180.766107 180.766106z m119.273636-120.42542h24.315441a60.404674 60.404674 0 0 0 60.340686-60.340686v-159.20215H819.078427a83.184403 83.184403 0 0 0 84.272199-81.712679A83.184403 83.184403 0 0 0 819.078427 520.542398h-95.982004V361.276261a60.340686 60.340686 0 0 0-60.340686-60.276698H505.72918V204.697619A83.184403 83.184403 0 0 0 424.080489 120.42542 83.184403 83.184403 0 0 0 342.36781 204.697619v96.301944H180.990068a60.340686 60.340686 0 0 0-60.21271 60.276698v24.315441a217.559208 217.559208 0 0 1 194.587515 216.535399 217.17528 217.17528 0 0 1-194.587515 216.5354v24.379429a60.340686 60.340686 0 0 0 60.21271 60.340686h24.379429a217.559208 217.559208 0 0 1 216.471412-194.651503 217.559208 217.559208 0 0 1 216.215459 194.843467z" fill="#1693F6" p-id="1003"></path></svg>